<mxfile host="app.diagrams.net" modified="2021-04-28T08:58:11.596Z" agent="5.0 (Macintosh; Intel Mac OS X 10_15_7) AppleWebKit/537.36 (KHTML, like Gecko) Chrome/90.0.4430.85 Safari/537.36" etag="SmARgE5aH-Bt6mVL8VYT" version="14.6.0" type="github">
  <diagram id="rMtIJKf_-BJrZOj8Wyio" name="Page-1">
    <mxGraphModel dx="1864" dy="760" grid="0" gridSize="10" guides="1" tooltips="1" connect="1" arrows="1" fold="1" page="1" pageScale="1" pageWidth="827" pageHeight="1169" background="#FFE6CC" math="0" shadow="0">
      <root>
        <mxCell id="0" />
        <mxCell id="1" parent="0" />
        <mxCell id="uyzlXY_feBfka4zgD6tP-4" value="Janus服务" style="shape=image;verticalLabelPosition=bottom;labelBackgroundColor=#ffffff;verticalAlign=top;aspect=fixed;imageAspect=0;image=data:image/png,iVBORw0KGgoAAAANSUhEUgAAADAAAAAwCAYAAABXAvmHAAAFeUlEQVRoQ+1aXWwUVRT+zuyCoJEYHwwkBjAxkc5sEJPK7BYx/gQfMDGGCEp80UCUaKCk7cy2VUSM0rKzK7SoRAgJieJDDUaNiTGoJaLsboVoYGeghAf1RaMPREia0O7OMbPtNtPZmd2Z/akh6Tz2nnvO9917vrv33FNCE76un1beRUJ+PUBrmDBOxKc02fi0CaFAjXaqZCLtALcDuMfh+zSAAS2qn2hkzIYRULLSZjAs4HIVgCdAPKDJhkWo7q9uAuoZ8XEWaAeApwKhYRyiQmgg8dD50UDzHMY1E+j6uSVCptAOxlYvAATqY7AVo9vD5ioTD4THQ4P9ay9crYVIYAJTAm0HkZUut7kFZeCjG+M3Og8+fOUfa1wZFhfTQtrPwHOuIIlHQcKAtjp3KCiJQAQqCLQUdxgCd2irjV/dgHSlRZkI+wGKeQANLHRfBKoJlIDLbFKn1pb7ys8KxkcimwomHyBgiYe9b6FXJOBDoGNM3JGUjQ/9AHfaKGlJBWGf51wfQncl4EegAN7WovquWoDb56g/3nc7wuF+Bl7xFDrzYDgfGnATehkBJS2+U0mgYBxDiHu01cZf9YK3zy8uWoH2AbQ+iNBnEFDS0hAIGz2AnSSi3oScO9tI4E5f8WzkSZPZSivJLQ4BRxJR/aXS2DQBNSNZx9xOl0kXGdyTjBpfNBN4mT4y0qtAUR9lRzUTbU3KuaPWnGkCSkb6BcAqm6NrAHq1qP7+bAK3x9o4hNCypVIfAYoDw2Etqr/sJMB2Iy2q+zpiZ4NcVzryCBEP22Kd0qL6o4EIqGlxGxM9C+AamTyYaDO+ayR425G9CMQf2K/fdRNQsuJGMA3ZARPzUUBIJWK5i/UQUdORFsDsZKItdj+hCeHO0rFZNwE1LcWZ0O8ESsAYA4MJWe8lwowUrEaKGaRmpb0E7GDgVqe9CaE1Fb1wzvp73QR2Dq+6Y97CCSsH7SK3x/wdxClNNg5WA26NK1lxO5g6ASxzs2fmPcmY8WZprG4CliM1s/JuE4UdhGLRMt8D6FkC9SaiuZNu42omso7BewG0epzxX5uEZFLWv7ePN4RAyWHHGfGB0GQB80KF1f5SmODt+9Yaf1g28dPiUnMeWbvjXvQQj7JJqWRMP+Lms6EEprc1Kz1GzJ2eP/2TZ1yiaM9QPcjmAST/DS9443DruQmvBWkKgVIwdSSygQvcDcKDfvK/ZENEQ3nkd70rX7pcbV5TCUzvyJnIFhL4dQDLKwFi8Dk26bVUm/5NNeANFbHfYGpGtM70PeCyO4xV//bUUjvMyg44CSoZqWFXkzkCftPHbje3A7bVmEuhuRQCUE+BNJdCN0sKOYv660zcm5SN9/4vAlZRv3yp2A9Q1wwMjIQW0+OT98WpT0mLh0C0rRwsj5os9KZiuc+CEKn3d6BY9ID6XK4kFoxnSp2eaQLd6RXLCxQ6DGCdB9BhZu5JxoysHyK1ElCzLU+zKfSBsMItjrNam/F0sjsnzh+7jt0VnxZBH88LF9S9rRf/rEQkKIF4Vrrf5GL98ISrX48eQu2Pu4SEJk/modunZKRPAGyeGjumRfUX3ey2Z+5dtIBuSVXo9FzlII+79iB+ntdB3O1WzE89xaxnYCzMBa0/duk3J4GujLSLgLc8d7LW5/Wyq3GVDiQDVwQSlIR84XM/+lBHxOfZpCSAxR72jWlwlN/xPXvARVMG/cCgjtJ7jnN+fCTSVijwAfIuP5vTYrID8dPkA9FxzgsdyTXn/7bm7jzbsmR+IXSAmTcFEaif3az5AddnF6efCUQML7FXFGhTCZSc+xC6Ow4fAp0VAqUg1TqZNjC+BTqrBKaJ3Kz/7OEUuiDkNzBhDUB5Yv42ETOO+1nRoDb/AVIgLV6wv3fZAAAAAElFTkSuQmCC;" vertex="1" parent="1">
          <mxGeometry x="427" y="366" width="48" height="48" as="geometry" />
        </mxCell>
        <mxCell id="uyzlXY_feBfka4zgD6tP-34" style="edgeStyle=orthogonalEdgeStyle;rounded=0;orthogonalLoop=1;jettySize=auto;html=1;entryX=0.5;entryY=0;entryDx=0;entryDy=0;" edge="1" parent="1" source="uyzlXY_feBfka4zgD6tP-5" target="uyzlXY_feBfka4zgD6tP-4">
          <mxGeometry relative="1" as="geometry" />
        </mxCell>
        <mxCell id="uyzlXY_feBfka4zgD6tP-5" value="sqlkeeper" style="shape=image;verticalLabelPosition=bottom;labelBackgroundColor=#ffffff;verticalAlign=top;aspect=fixed;imageAspect=0;image=data:image/png,iVBORw0KGgoAAAANSUhEUgAAADAAAAAwCAYAAABXAvmHAAAFeUlEQVRoQ+1aXWwUVRT+zuyCoJEYHwwkBjAxkc5sEJPK7BYx/gQfMDGGCEp80UCUaKCk7cy2VUSM0rKzK7SoRAgJieJDDUaNiTGoJaLsboVoYGeghAf1RaMPREia0O7OMbPtNtPZmd2Z/akh6Tz2nnvO9917vrv33FNCE76un1beRUJ+PUBrmDBOxKc02fi0CaFAjXaqZCLtALcDuMfh+zSAAS2qn2hkzIYRULLSZjAs4HIVgCdAPKDJhkWo7q9uAuoZ8XEWaAeApwKhYRyiQmgg8dD50UDzHMY1E+j6uSVCptAOxlYvAATqY7AVo9vD5ioTD4THQ4P9ay9crYVIYAJTAm0HkZUut7kFZeCjG+M3Og8+fOUfa1wZFhfTQtrPwHOuIIlHQcKAtjp3KCiJQAQqCLQUdxgCd2irjV/dgHSlRZkI+wGKeQANLHRfBKoJlIDLbFKn1pb7ys8KxkcimwomHyBgiYe9b6FXJOBDoGNM3JGUjQ/9AHfaKGlJBWGf51wfQncl4EegAN7WovquWoDb56g/3nc7wuF+Bl7xFDrzYDgfGnATehkBJS2+U0mgYBxDiHu01cZf9YK3zy8uWoH2AbQ+iNBnEFDS0hAIGz2AnSSi3oScO9tI4E5f8WzkSZPZSivJLQ4BRxJR/aXS2DQBNSNZx9xOl0kXGdyTjBpfNBN4mT4y0qtAUR9lRzUTbU3KuaPWnGkCSkb6BcAqm6NrAHq1qP7+bAK3x9o4hNCypVIfAYoDw2Etqr/sJMB2Iy2q+zpiZ4NcVzryCBEP22Kd0qL6o4EIqGlxGxM9C+AamTyYaDO+ayR425G9CMQf2K/fdRNQsuJGMA3ZARPzUUBIJWK5i/UQUdORFsDsZKItdj+hCeHO0rFZNwE1LcWZ0O8ESsAYA4MJWe8lwowUrEaKGaRmpb0E7GDgVqe9CaE1Fb1wzvp73QR2Dq+6Y97CCSsH7SK3x/wdxClNNg5WA26NK1lxO5g6ASxzs2fmPcmY8WZprG4CliM1s/JuE4UdhGLRMt8D6FkC9SaiuZNu42omso7BewG0epzxX5uEZFLWv7ePN4RAyWHHGfGB0GQB80KF1f5SmODt+9Yaf1g28dPiUnMeWbvjXvQQj7JJqWRMP+Lms6EEprc1Kz1GzJ2eP/2TZ1yiaM9QPcjmAST/DS9443DruQmvBWkKgVIwdSSygQvcDcKDfvK/ZENEQ3nkd70rX7pcbV5TCUzvyJnIFhL4dQDLKwFi8Dk26bVUm/5NNeANFbHfYGpGtM70PeCyO4xV//bUUjvMyg44CSoZqWFXkzkCftPHbje3A7bVmEuhuRQCUE+BNJdCN0sKOYv660zcm5SN9/4vAlZRv3yp2A9Q1wwMjIQW0+OT98WpT0mLh0C0rRwsj5os9KZiuc+CEKn3d6BY9ID6XK4kFoxnSp2eaQLd6RXLCxQ6DGCdB9BhZu5JxoysHyK1ElCzLU+zKfSBsMItjrNam/F0sjsnzh+7jt0VnxZBH88LF9S9rRf/rEQkKIF4Vrrf5GL98ISrX48eQu2Pu4SEJk/modunZKRPAGyeGjumRfUX3ey2Z+5dtIBuSVXo9FzlII+79iB+ntdB3O1WzE89xaxnYCzMBa0/duk3J4GujLSLgLc8d7LW5/Wyq3GVDiQDVwQSlIR84XM/+lBHxOfZpCSAxR72jWlwlN/xPXvARVMG/cCgjtJ7jnN+fCTSVijwAfIuP5vTYrID8dPkA9FxzgsdyTXn/7bm7jzbsmR+IXSAmTcFEaif3az5AddnF6efCUQML7FXFGhTCZSc+xC6Ow4fAp0VAqUg1TqZNjC+BTqrBKaJ3Kz/7OEUuiDkNzBhDUB5Yv42ETOO+1nRoDb/AVIgLV6wv3fZAAAAAElFTkSuQmCC;" vertex="1" parent="1">
          <mxGeometry x="234" y="170" width="48" height="48" as="geometry" />
        </mxCell>
        <mxCell id="uyzlXY_feBfka4zgD6tP-64" style="edgeStyle=orthogonalEdgeStyle;rounded=0;orthogonalLoop=1;jettySize=auto;html=1;" edge="1" parent="1" source="uyzlXY_feBfka4zgD6tP-6" target="uyzlXY_feBfka4zgD6tP-4">
          <mxGeometry relative="1" as="geometry" />
        </mxCell>
        <mxCell id="uyzlXY_feBfka4zgD6tP-6" value="data-tools" style="shape=image;verticalLabelPosition=bottom;labelBackgroundColor=#ffffff;verticalAlign=top;aspect=fixed;imageAspect=0;image=data:image/png,iVBORw0KGgoAAAANSUhEUgAAADAAAAAwCAYAAABXAvmHAAAFeUlEQVRoQ+1aXWwUVRT+zuyCoJEYHwwkBjAxkc5sEJPK7BYx/gQfMDGGCEp80UCUaKCk7cy2VUSM0rKzK7SoRAgJieJDDUaNiTGoJaLsboVoYGeghAf1RaMPREia0O7OMbPtNtPZmd2Z/akh6Tz2nnvO9917vrv33FNCE76un1beRUJ+PUBrmDBOxKc02fi0CaFAjXaqZCLtALcDuMfh+zSAAS2qn2hkzIYRULLSZjAs4HIVgCdAPKDJhkWo7q9uAuoZ8XEWaAeApwKhYRyiQmgg8dD50UDzHMY1E+j6uSVCptAOxlYvAATqY7AVo9vD5ioTD4THQ4P9ay9crYVIYAJTAm0HkZUut7kFZeCjG+M3Og8+fOUfa1wZFhfTQtrPwHOuIIlHQcKAtjp3KCiJQAQqCLQUdxgCd2irjV/dgHSlRZkI+wGKeQANLHRfBKoJlIDLbFKn1pb7ys8KxkcimwomHyBgiYe9b6FXJOBDoGNM3JGUjQ/9AHfaKGlJBWGf51wfQncl4EegAN7WovquWoDb56g/3nc7wuF+Bl7xFDrzYDgfGnATehkBJS2+U0mgYBxDiHu01cZf9YK3zy8uWoH2AbQ+iNBnEFDS0hAIGz2AnSSi3oScO9tI4E5f8WzkSZPZSivJLQ4BRxJR/aXS2DQBNSNZx9xOl0kXGdyTjBpfNBN4mT4y0qtAUR9lRzUTbU3KuaPWnGkCSkb6BcAqm6NrAHq1qP7+bAK3x9o4hNCypVIfAYoDw2Etqr/sJMB2Iy2q+zpiZ4NcVzryCBEP22Kd0qL6o4EIqGlxGxM9C+AamTyYaDO+ayR425G9CMQf2K/fdRNQsuJGMA3ZARPzUUBIJWK5i/UQUdORFsDsZKItdj+hCeHO0rFZNwE1LcWZ0O8ESsAYA4MJWe8lwowUrEaKGaRmpb0E7GDgVqe9CaE1Fb1wzvp73QR2Dq+6Y97CCSsH7SK3x/wdxClNNg5WA26NK1lxO5g6ASxzs2fmPcmY8WZprG4CliM1s/JuE4UdhGLRMt8D6FkC9SaiuZNu42omso7BewG0epzxX5uEZFLWv7ePN4RAyWHHGfGB0GQB80KF1f5SmODt+9Yaf1g28dPiUnMeWbvjXvQQj7JJqWRMP+Lms6EEprc1Kz1GzJ2eP/2TZ1yiaM9QPcjmAST/DS9443DruQmvBWkKgVIwdSSygQvcDcKDfvK/ZENEQ3nkd70rX7pcbV5TCUzvyJnIFhL4dQDLKwFi8Dk26bVUm/5NNeANFbHfYGpGtM70PeCyO4xV//bUUjvMyg44CSoZqWFXkzkCftPHbje3A7bVmEuhuRQCUE+BNJdCN0sKOYv660zcm5SN9/4vAlZRv3yp2A9Q1wwMjIQW0+OT98WpT0mLh0C0rRwsj5os9KZiuc+CEKn3d6BY9ID6XK4kFoxnSp2eaQLd6RXLCxQ6DGCdB9BhZu5JxoysHyK1ElCzLU+zKfSBsMItjrNam/F0sjsnzh+7jt0VnxZBH88LF9S9rRf/rEQkKIF4Vrrf5GL98ISrX48eQu2Pu4SEJk/modunZKRPAGyeGjumRfUX3ey2Z+5dtIBuSVXo9FzlII+79iB+ntdB3O1WzE89xaxnYCzMBa0/duk3J4GujLSLgLc8d7LW5/Wyq3GVDiQDVwQSlIR84XM/+lBHxOfZpCSAxR72jWlwlN/xPXvARVMG/cCgjtJ7jnN+fCTSVijwAfIuP5vTYrID8dPkA9FxzgsdyTXn/7bm7jzbsmR+IXSAmTcFEaif3az5AddnF6efCUQML7FXFGhTCZSc+xC6Ow4fAp0VAqUg1TqZNjC+BTqrBKaJ3Kz/7OEUuiDkNzBhDUB5Yv42ETOO+1nRoDb/AVIgLV6wv3fZAAAAAElFTkSuQmCC;" vertex="1" parent="1">
          <mxGeometry x="226" y="251" width="48" height="48" as="geometry" />
        </mxCell>
        <mxCell id="uyzlXY_feBfka4zgD6tP-40" style="edgeStyle=orthogonalEdgeStyle;rounded=0;orthogonalLoop=1;jettySize=auto;html=1;" edge="1" parent="1" source="uyzlXY_feBfka4zgD6tP-7" target="uyzlXY_feBfka4zgD6tP-4">
          <mxGeometry relative="1" as="geometry" />
        </mxCell>
        <mxCell id="uyzlXY_feBfka4zgD6tP-7" value="data-lineage" style="shape=image;verticalLabelPosition=bottom;labelBackgroundColor=#ffffff;verticalAlign=top;aspect=fixed;imageAspect=0;image=data:image/png,iVBORw0KGgoAAAANSUhEUgAAADAAAAAwCAYAAABXAvmHAAAFeUlEQVRoQ+1aXWwUVRT+zuyCoJEYHwwkBjAxkc5sEJPK7BYx/gQfMDGGCEp80UCUaKCk7cy2VUSM0rKzK7SoRAgJieJDDUaNiTGoJaLsboVoYGeghAf1RaMPREia0O7OMbPtNtPZmd2Z/akh6Tz2nnvO9917vrv33FNCE76un1beRUJ+PUBrmDBOxKc02fi0CaFAjXaqZCLtALcDuMfh+zSAAS2qn2hkzIYRULLSZjAs4HIVgCdAPKDJhkWo7q9uAuoZ8XEWaAeApwKhYRyiQmgg8dD50UDzHMY1E+j6uSVCptAOxlYvAATqY7AVo9vD5ioTD4THQ4P9ay9crYVIYAJTAm0HkZUut7kFZeCjG+M3Og8+fOUfa1wZFhfTQtrPwHOuIIlHQcKAtjp3KCiJQAQqCLQUdxgCd2irjV/dgHSlRZkI+wGKeQANLHRfBKoJlIDLbFKn1pb7ys8KxkcimwomHyBgiYe9b6FXJOBDoGNM3JGUjQ/9AHfaKGlJBWGf51wfQncl4EegAN7WovquWoDb56g/3nc7wuF+Bl7xFDrzYDgfGnATehkBJS2+U0mgYBxDiHu01cZf9YK3zy8uWoH2AbQ+iNBnEFDS0hAIGz2AnSSi3oScO9tI4E5f8WzkSZPZSivJLQ4BRxJR/aXS2DQBNSNZx9xOl0kXGdyTjBpfNBN4mT4y0qtAUR9lRzUTbU3KuaPWnGkCSkb6BcAqm6NrAHq1qP7+bAK3x9o4hNCypVIfAYoDw2Etqr/sJMB2Iy2q+zpiZ4NcVzryCBEP22Kd0qL6o4EIqGlxGxM9C+AamTyYaDO+ayR425G9CMQf2K/fdRNQsuJGMA3ZARPzUUBIJWK5i/UQUdORFsDsZKItdj+hCeHO0rFZNwE1LcWZ0O8ESsAYA4MJWe8lwowUrEaKGaRmpb0E7GDgVqe9CaE1Fb1wzvp73QR2Dq+6Y97CCSsH7SK3x/wdxClNNg5WA26NK1lxO5g6ASxzs2fmPcmY8WZprG4CliM1s/JuE4UdhGLRMt8D6FkC9SaiuZNu42omso7BewG0epzxX5uEZFLWv7ePN4RAyWHHGfGB0GQB80KF1f5SmODt+9Yaf1g28dPiUnMeWbvjXvQQj7JJqWRMP+Lms6EEprc1Kz1GzJ2eP/2TZ1yiaM9QPcjmAST/DS9443DruQmvBWkKgVIwdSSygQvcDcKDfvK/ZENEQ3nkd70rX7pcbV5TCUzvyJnIFhL4dQDLKwFi8Dk26bVUm/5NNeANFbHfYGpGtM70PeCyO4xV//bUUjvMyg44CSoZqWFXkzkCftPHbje3A7bVmEuhuRQCUE+BNJdCN0sKOYv660zcm5SN9/4vAlZRv3yp2A9Q1wwMjIQW0+OT98WpT0mLh0C0rRwsj5os9KZiuc+CEKn3d6BY9ID6XK4kFoxnSp2eaQLd6RXLCxQ6DGCdB9BhZu5JxoysHyK1ElCzLU+zKfSBsMItjrNam/F0sjsnzh+7jt0VnxZBH88LF9S9rRf/rEQkKIF4Vrrf5GL98ISrX48eQu2Pu4SEJk/modunZKRPAGyeGjumRfUX3ey2Z+5dtIBuSVXo9FzlII+79iB+ntdB3O1WzE89xaxnYCzMBa0/duk3J4GujLSLgLc8d7LW5/Wyq3GVDiQDVwQSlIR84XM/+lBHxOfZpCSAxR72jWlwlN/xPXvARVMG/cCgjtJ7jnN+fCTSVijwAfIuP5vTYrID8dPkA9FxzgsdyTXn/7bm7jzbsmR+IXSAmTcFEaif3az5AddnF6efCUQML7FXFGhTCZSc+xC6Ow4fAp0VAqUg1TqZNjC+BTqrBKaJ3Kz/7OEUuiDkNzBhDUB5Yv42ETOO+1nRoDb/AVIgLV6wv3fZAAAAAElFTkSuQmCC;" vertex="1" parent="1">
          <mxGeometry x="427" y="537" width="48" height="48" as="geometry" />
        </mxCell>
        <mxCell id="uyzlXY_feBfka4zgD6tP-11" style="edgeStyle=orthogonalEdgeStyle;rounded=0;orthogonalLoop=1;jettySize=auto;html=1;entryX=0;entryY=0.5;entryDx=0;entryDy=0;" edge="1" parent="1" source="uyzlXY_feBfka4zgD6tP-9" target="uyzlXY_feBfka4zgD6tP-5">
          <mxGeometry relative="1" as="geometry" />
        </mxCell>
        <mxCell id="uyzlXY_feBfka4zgD6tP-43" style="edgeStyle=orthogonalEdgeStyle;rounded=0;orthogonalLoop=1;jettySize=auto;html=1;entryX=0;entryY=0.5;entryDx=0;entryDy=0;" edge="1" parent="1" source="uyzlXY_feBfka4zgD6tP-9" target="uyzlXY_feBfka4zgD6tP-6">
          <mxGeometry relative="1" as="geometry" />
        </mxCell>
        <mxCell id="uyzlXY_feBfka4zgD6tP-9" value="sqlpasta" style="shape=image;verticalLabelPosition=bottom;labelBackgroundColor=#ffffff;verticalAlign=top;aspect=fixed;imageAspect=0;image=data:image/png,iVBORw0KGgoAAAANSUhEUgAAADAAAAAwCAYAAABXAvmHAAABiklEQVRoQ+2ZPUrEQBTHf3sAEWy8gWyhd1DUE7jaCLYWliJopTYuWFiJYGmr6AkELT2DBxBE8Azylh0YQz42eTNJZnkpk7z5f71JJpkBiR+DxPljArpOcK4TuAdWunZ4iv8JHOZxKUrgEdjtCXlH4wnYy3IqEvAGrPdMwDuwYQI6TMUS6ND8CbQlYAkoHQjeQt/AspJUnfLgAi6AVWBUh4Xi3uACLgERcQJcK4jNWhpNgBDYBF5nZdLwvqgChNMQ+AAWGxKsKgsuQACPgRsPeQF4Brar2DS4HkWA8LgDjjKEbnPONeD8rySaAPea3we+PMgz4ErL2quPKkBwfqYfHALkjgPgIZAIE1BmpLiTbAslPYnzHqMvwFagvveHCT4H3FLCgST3IvMFlC0l5E+C/2TKC0fWVOcVqUVL4BQYl4D3VoC4tgbsVDjXWwG/wFKEyVo0ZPAWapH7BMoEtO14Fs8SsASUDlgLKQ1Ul9dKIPktJrEr6U0+dd5tDTDX+8RtmajCsQRU9gUo/gMcGXYxhk/DVQAAAABJRU5ErkJggg==;" vertex="1" parent="1">
          <mxGeometry x="19" y="170" width="48" height="48" as="geometry" />
        </mxCell>
        <mxCell id="uyzlXY_feBfka4zgD6tP-25" style="edgeStyle=orthogonalEdgeStyle;rounded=0;orthogonalLoop=1;jettySize=auto;html=1;" edge="1" parent="1" source="uyzlXY_feBfka4zgD6tP-10" target="uyzlXY_feBfka4zgD6tP-6">
          <mxGeometry relative="1" as="geometry">
            <Array as="points">
              <mxPoint x="62" y="275" />
            </Array>
          </mxGeometry>
        </mxCell>
        <mxCell id="uyzlXY_feBfka4zgD6tP-44" style="edgeStyle=orthogonalEdgeStyle;rounded=0;orthogonalLoop=1;jettySize=auto;html=1;entryX=0;entryY=0.5;entryDx=0;entryDy=0;" edge="1" parent="1" source="uyzlXY_feBfka4zgD6tP-10" target="uyzlXY_feBfka4zgD6tP-5">
          <mxGeometry relative="1" as="geometry" />
        </mxCell>
        <mxCell id="uyzlXY_feBfka4zgD6tP-10" value="sqldwh" style="shape=image;verticalLabelPosition=bottom;labelBackgroundColor=#ffffff;verticalAlign=top;aspect=fixed;imageAspect=0;image=data:image/png,iVBORw0KGgoAAAANSUhEUgAAADAAAAAwCAYAAABXAvmHAAABiklEQVRoQ+2ZPUrEQBTHf3sAEWy8gWyhd1DUE7jaCLYWliJopTYuWFiJYGmr6AkELT2DBxBE8Azylh0YQz42eTNJZnkpk7z5f71JJpkBiR+DxPljArpOcK4TuAdWunZ4iv8JHOZxKUrgEdjtCXlH4wnYy3IqEvAGrPdMwDuwYQI6TMUS6ND8CbQlYAkoHQjeQt/AspJUnfLgAi6AVWBUh4Xi3uACLgERcQJcK4jNWhpNgBDYBF5nZdLwvqgChNMQ+AAWGxKsKgsuQACPgRsPeQF4Brar2DS4HkWA8LgDjjKEbnPONeD8rySaAPea3we+PMgz4ErL2quPKkBwfqYfHALkjgPgIZAIE1BmpLiTbAslPYnzHqMvwFagvveHCT4H3FLCgST3IvMFlC0l5E+C/2TKC0fWVOcVqUVL4BQYl4D3VoC4tgbsVDjXWwG/wFKEyVo0ZPAWapH7BMoEtO14Fs8SsASUDlgLKQ1Ul9dKIPktJrEr6U0+dd5tDTDX+8RtmajCsQRU9gUo/gMcGXYxhk/DVQAAAABJRU5ErkJggg==;" vertex="1" parent="1">
          <mxGeometry x="19" y="247" width="48" height="48" as="geometry" />
        </mxCell>
        <mxCell id="uyzlXY_feBfka4zgD6tP-13" value="&lt;span style=&quot;font-family: monospace ; font-size: 14px ; letter-spacing: -0.3px ; text-align: left&quot;&gt;&lt;font color=&quot;#1a1a1a&quot;&gt;调用/handle_git_merge接口&lt;/font&gt;&lt;/span&gt;" style="text;html=1;align=center;verticalAlign=middle;resizable=0;points=[];autosize=1;strokeColor=none;" vertex="1" parent="1">
          <mxGeometry x="62" y="170" width="203" height="19" as="geometry" />
        </mxCell>
        <mxCell id="uyzlXY_feBfka4zgD6tP-19" value="&lt;span style=&quot;font-family: monospace ; font-size: 14px ; letter-spacing: -0.3px ; text-align: left&quot;&gt;调用/hive/table_dependency接口&lt;/span&gt;" style="text;html=1;align=center;verticalAlign=middle;resizable=0;points=[];autosize=1;strokeColor=none;" vertex="1" parent="1">
          <mxGeometry x="275" y="167" width="243" height="19" as="geometry" />
        </mxCell>
        <mxCell id="uyzlXY_feBfka4zgD6tP-20" value="&lt;span style=&quot;font-family: monospace ; font-size: 14px ; letter-spacing: -0.3px ; text-align: left&quot;&gt;&lt;font color=&quot;#1a1a1a&quot;&gt;调用/sparksql/table_dependency接口&lt;/font&gt;&lt;/span&gt;" style="text;html=1;align=center;verticalAlign=middle;resizable=0;points=[];autosize=1;strokeColor=none;" vertex="1" parent="1">
          <mxGeometry x="271" y="193" width="275" height="19" as="geometry" />
        </mxCell>
        <mxCell id="uyzlXY_feBfka4zgD6tP-39" style="edgeStyle=orthogonalEdgeStyle;rounded=0;orthogonalLoop=1;jettySize=auto;html=1;" edge="1" parent="1" source="uyzlXY_feBfka4zgD6tP-21" target="uyzlXY_feBfka4zgD6tP-7">
          <mxGeometry relative="1" as="geometry" />
        </mxCell>
        <mxCell id="uyzlXY_feBfka4zgD6tP-21" value="data-etl-graph" style="shape=image;verticalLabelPosition=bottom;labelBackgroundColor=#ffffff;verticalAlign=top;aspect=fixed;imageAspect=0;image=data:image/png,iVBORw0KGgoAAAANSUhEUgAAADAAAAAwCAYAAABXAvmHAAAFeUlEQVRoQ+1aXWwUVRT+zuyCoJEYHwwkBjAxkc5sEJPK7BYx/gQfMDGGCEp80UCUaKCk7cy2VUSM0rKzK7SoRAgJieJDDUaNiTGoJaLsboVoYGeghAf1RaMPREia0O7OMbPtNtPZmd2Z/akh6Tz2nnvO9917vrv33FNCE76un1beRUJ+PUBrmDBOxKc02fi0CaFAjXaqZCLtALcDuMfh+zSAAS2qn2hkzIYRULLSZjAs4HIVgCdAPKDJhkWo7q9uAuoZ8XEWaAeApwKhYRyiQmgg8dD50UDzHMY1E+j6uSVCptAOxlYvAATqY7AVo9vD5ioTD4THQ4P9ay9crYVIYAJTAm0HkZUut7kFZeCjG+M3Og8+fOUfa1wZFhfTQtrPwHOuIIlHQcKAtjp3KCiJQAQqCLQUdxgCd2irjV/dgHSlRZkI+wGKeQANLHRfBKoJlIDLbFKn1pb7ys8KxkcimwomHyBgiYe9b6FXJOBDoGNM3JGUjQ/9AHfaKGlJBWGf51wfQncl4EegAN7WovquWoDb56g/3nc7wuF+Bl7xFDrzYDgfGnATehkBJS2+U0mgYBxDiHu01cZf9YK3zy8uWoH2AbQ+iNBnEFDS0hAIGz2AnSSi3oScO9tI4E5f8WzkSZPZSivJLQ4BRxJR/aXS2DQBNSNZx9xOl0kXGdyTjBpfNBN4mT4y0qtAUR9lRzUTbU3KuaPWnGkCSkb6BcAqm6NrAHq1qP7+bAK3x9o4hNCypVIfAYoDw2Etqr/sJMB2Iy2q+zpiZ4NcVzryCBEP22Kd0qL6o4EIqGlxGxM9C+AamTyYaDO+ayR425G9CMQf2K/fdRNQsuJGMA3ZARPzUUBIJWK5i/UQUdORFsDsZKItdj+hCeHO0rFZNwE1LcWZ0O8ESsAYA4MJWe8lwowUrEaKGaRmpb0E7GDgVqe9CaE1Fb1wzvp73QR2Dq+6Y97CCSsH7SK3x/wdxClNNg5WA26NK1lxO5g6ASxzs2fmPcmY8WZprG4CliM1s/JuE4UdhGLRMt8D6FkC9SaiuZNu42omso7BewG0epzxX5uEZFLWv7ePN4RAyWHHGfGB0GQB80KF1f5SmODt+9Yaf1g28dPiUnMeWbvjXvQQj7JJqWRMP+Lms6EEprc1Kz1GzJ2eP/2TZ1yiaM9QPcjmAST/DS9443DruQmvBWkKgVIwdSSygQvcDcKDfvK/ZENEQ3nkd70rX7pcbV5TCUzvyJnIFhL4dQDLKwFi8Dk26bVUm/5NNeANFbHfYGpGtM70PeCyO4xV//bUUjvMyg44CSoZqWFXkzkCftPHbje3A7bVmEuhuRQCUE+BNJdCN0sKOYv660zcm5SN9/4vAlZRv3yp2A9Q1wwMjIQW0+OT98WpT0mLh0C0rRwsj5os9KZiuc+CEKn3d6BY9ID6XK4kFoxnSp2eaQLd6RXLCxQ6DGCdB9BhZu5JxoysHyK1ElCzLU+zKfSBsMItjrNam/F0sjsnzh+7jt0VnxZBH88LF9S9rRf/rEQkKIF4Vrrf5GL98ISrX48eQu2Pu4SEJk/modunZKRPAGyeGjumRfUX3ey2Z+5dtIBuSVXo9FzlII+79iB+ntdB3O1WzE89xaxnYCzMBa0/duk3J4GujLSLgLc8d7LW5/Wyq3GVDiQDVwQSlIR84XM/+lBHxOfZpCSAxR72jWlwlN/xPXvARVMG/cCgjtJ7jnN+fCTSVijwAfIuP5vTYrID8dPkA9FxzgsdyTXn/7bm7jzbsmR+IXSAmTcFEaif3az5AddnF6efCUQML7FXFGhTCZSc+xC6Ow4fAp0VAqUg1TqZNjC+BTqrBKaJ3Kz/7OEUuiDkNzBhDUB5Yv42ETOO+1nRoDb/AVIgLV6wv3fZAAAAAElFTkSuQmCC;" vertex="1" parent="1">
          <mxGeometry x="427" y="722" width="48" height="48" as="geometry" />
        </mxCell>
        <mxCell id="uyzlXY_feBfka4zgD6tP-38" style="edgeStyle=orthogonalEdgeStyle;rounded=0;orthogonalLoop=1;jettySize=auto;html=1;" edge="1" parent="1" source="uyzlXY_feBfka4zgD6tP-22" target="uyzlXY_feBfka4zgD6tP-7">
          <mxGeometry relative="1" as="geometry" />
        </mxCell>
        <mxCell id="uyzlXY_feBfka4zgD6tP-61" style="edgeStyle=orthogonalEdgeStyle;rounded=0;orthogonalLoop=1;jettySize=auto;html=1;entryX=0.5;entryY=1;entryDx=0;entryDy=0;" edge="1" parent="1" source="uyzlXY_feBfka4zgD6tP-22" target="uyzlXY_feBfka4zgD6tP-21">
          <mxGeometry relative="1" as="geometry">
            <Array as="points">
              <mxPoint x="804" y="561" />
              <mxPoint x="804" y="808" />
              <mxPoint x="451" y="808" />
            </Array>
          </mxGeometry>
        </mxCell>
        <mxCell id="uyzlXY_feBfka4zgD6tP-22" value="linked-see" style="shape=image;verticalLabelPosition=bottom;labelBackgroundColor=#ffffff;verticalAlign=top;aspect=fixed;imageAspect=0;image=data:image/png,iVBORw0KGgoAAAANSUhEUgAAADAAAAAwCAYAAABXAvmHAAAFeUlEQVRoQ+1aXWwUVRT+zuyCoJEYHwwkBjAxkc5sEJPK7BYx/gQfMDGGCEp80UCUaKCk7cy2VUSM0rKzK7SoRAgJieJDDUaNiTGoJaLsboVoYGeghAf1RaMPREia0O7OMbPtNtPZmd2Z/akh6Tz2nnvO9917vrv33FNCE76un1beRUJ+PUBrmDBOxKc02fi0CaFAjXaqZCLtALcDuMfh+zSAAS2qn2hkzIYRULLSZjAs4HIVgCdAPKDJhkWo7q9uAuoZ8XEWaAeApwKhYRyiQmgg8dD50UDzHMY1E+j6uSVCptAOxlYvAATqY7AVo9vD5ioTD4THQ4P9ay9crYVIYAJTAm0HkZUut7kFZeCjG+M3Og8+fOUfa1wZFhfTQtrPwHOuIIlHQcKAtjp3KCiJQAQqCLQUdxgCd2irjV/dgHSlRZkI+wGKeQANLHRfBKoJlIDLbFKn1pb7ys8KxkcimwomHyBgiYe9b6FXJOBDoGNM3JGUjQ/9AHfaKGlJBWGf51wfQncl4EegAN7WovquWoDb56g/3nc7wuF+Bl7xFDrzYDgfGnATehkBJS2+U0mgYBxDiHu01cZf9YK3zy8uWoH2AbQ+iNBnEFDS0hAIGz2AnSSi3oScO9tI4E5f8WzkSZPZSivJLQ4BRxJR/aXS2DQBNSNZx9xOl0kXGdyTjBpfNBN4mT4y0qtAUR9lRzUTbU3KuaPWnGkCSkb6BcAqm6NrAHq1qP7+bAK3x9o4hNCypVIfAYoDw2Etqr/sJMB2Iy2q+zpiZ4NcVzryCBEP22Kd0qL6o4EIqGlxGxM9C+AamTyYaDO+ayR425G9CMQf2K/fdRNQsuJGMA3ZARPzUUBIJWK5i/UQUdORFsDsZKItdj+hCeHO0rFZNwE1LcWZ0O8ESsAYA4MJWe8lwowUrEaKGaRmpb0E7GDgVqe9CaE1Fb1wzvp73QR2Dq+6Y97CCSsH7SK3x/wdxClNNg5WA26NK1lxO5g6ASxzs2fmPcmY8WZprG4CliM1s/JuE4UdhGLRMt8D6FkC9SaiuZNu42omso7BewG0epzxX5uEZFLWv7ePN4RAyWHHGfGB0GQB80KF1f5SmODt+9Yaf1g28dPiUnMeWbvjXvQQj7JJqWRMP+Lms6EEprc1Kz1GzJ2eP/2TZ1yiaM9QPcjmAST/DS9443DruQmvBWkKgVIwdSSygQvcDcKDfvK/ZENEQ3nkd70rX7pcbV5TCUzvyJnIFhL4dQDLKwFi8Dk26bVUm/5NNeANFbHfYGpGtM70PeCyO4xV//bUUjvMyg44CSoZqWFXkzkCftPHbje3A7bVmEuhuRQCUE+BNJdCN0sKOYv660zcm5SN9/4vAlZRv3yp2A9Q1wwMjIQW0+OT98WpT0mLh0C0rRwsj5os9KZiuc+CEKn3d6BY9ID6XK4kFoxnSp2eaQLd6RXLCxQ6DGCdB9BhZu5JxoysHyK1ElCzLU+zKfSBsMItjrNam/F0sjsnzh+7jt0VnxZBH88LF9S9rRf/rEQkKIF4Vrrf5GL98ISrX48eQu2Pu4SEJk/modunZKRPAGyeGjumRfUX3ey2Z+5dtIBuSVXo9FzlII+79iB+ntdB3O1WzE89xaxnYCzMBa0/duk3J4GujLSLgLc8d7LW5/Wyq3GVDiQDVwQSlIR84XM/+lBHxOfZpCSAxR72jWlwlN/xPXvARVMG/cCgjtJ7jnN+fCTSVijwAfIuP5vTYrID8dPkA9FxzgsdyTXn/7bm7jzbsmR+IXSAmTcFEaif3az5AddnF6efCUQML7FXFGhTCZSc+xC6Ow4fAp0VAqUg1TqZNjC+BTqrBKaJ3Kz/7OEUuiDkNzBhDUB5Yv42ETOO+1nRoDb/AVIgLV6wv3fZAAAAAElFTkSuQmCC;" vertex="1" parent="1">
          <mxGeometry x="710" y="537" width="48" height="48" as="geometry" />
        </mxCell>
        <mxCell id="uyzlXY_feBfka4zgD6tP-26" value="CI pipeline" style="text;html=1;align=center;verticalAlign=middle;resizable=0;points=[];autosize=1;strokeColor=none;" vertex="1" parent="1">
          <mxGeometry x="147" y="251" width="67" height="18" as="geometry" />
        </mxCell>
        <mxCell id="uyzlXY_feBfka4zgD6tP-27" value="&lt;span style=&quot;font-family: monospace ; font-size: 14px ; letter-spacing: -0.3px ; text-align: left&quot;&gt;调用/hive/sql接口&lt;/span&gt;" style="text;html=1;align=center;verticalAlign=middle;resizable=0;points=[];autosize=1;strokeColor=none;" vertex="1" parent="1">
          <mxGeometry x="282" y="239" width="138" height="19" as="geometry" />
        </mxCell>
        <mxCell id="uyzlXY_feBfka4zgD6tP-29" value="&lt;span style=&quot;font-family: monospace ; font-size: 14px ; letter-spacing: -0.3px ; text-align: left&quot;&gt;调用/hive/semantic_analysis_async接口&lt;/span&gt;" style="text;html=1;align=center;verticalAlign=middle;resizable=0;points=[];autosize=1;strokeColor=none;" vertex="1" parent="1">
          <mxGeometry x="276" y="282" width="300" height="19" as="geometry" />
        </mxCell>
        <mxCell id="uyzlXY_feBfka4zgD6tP-30" value="&lt;span style=&quot;font-family: monospace ; font-size: 14px ; letter-spacing: -0.3px ; text-align: left&quot;&gt;调用/sparksql/semantic_analysis_async接口&lt;/span&gt;" style="text;html=1;align=center;verticalAlign=middle;resizable=0;points=[];autosize=1;strokeColor=none;" vertex="1" parent="1">
          <mxGeometry x="276" y="301" width="332" height="19" as="geometry" />
        </mxCell>
        <mxCell id="uyzlXY_feBfka4zgD6tP-31" value="&lt;span style=&quot;font-family: monospace ; font-size: 14px ; letter-spacing: -0.3px ; text-align: left&quot;&gt;调用/hive/semantic_analysis_result接口&lt;/span&gt;" style="text;html=1;align=center;verticalAlign=middle;resizable=0;points=[];autosize=1;strokeColor=none;" vertex="1" parent="1">
          <mxGeometry x="276" y="339" width="308" height="19" as="geometry" />
        </mxCell>
        <mxCell id="uyzlXY_feBfka4zgD6tP-32" value="&lt;span style=&quot;font-family: monospace ; font-size: 14px ; letter-spacing: -0.3px ; text-align: left&quot;&gt;调用/sparksql/semantic_analysis_result接口&lt;/span&gt;" style="text;html=1;align=center;verticalAlign=middle;resizable=0;points=[];autosize=1;strokeColor=none;" vertex="1" parent="1">
          <mxGeometry x="276" y="320" width="340" height="19" as="geometry" />
        </mxCell>
        <mxCell id="uyzlXY_feBfka4zgD6tP-51" style="edgeStyle=orthogonalEdgeStyle;rounded=0;orthogonalLoop=1;jettySize=auto;html=1;entryX=1;entryY=0.5;entryDx=0;entryDy=0;" edge="1" parent="1" source="uyzlXY_feBfka4zgD6tP-36" target="uyzlXY_feBfka4zgD6tP-21">
          <mxGeometry relative="1" as="geometry" />
        </mxCell>
        <mxCell id="uyzlXY_feBfka4zgD6tP-52" style="edgeStyle=orthogonalEdgeStyle;rounded=0;orthogonalLoop=1;jettySize=auto;html=1;entryX=0.5;entryY=1;entryDx=0;entryDy=0;" edge="1" parent="1" source="uyzlXY_feBfka4zgD6tP-36" target="uyzlXY_feBfka4zgD6tP-22">
          <mxGeometry relative="1" as="geometry" />
        </mxCell>
        <mxCell id="uyzlXY_feBfka4zgD6tP-55" style="edgeStyle=orthogonalEdgeStyle;rounded=0;orthogonalLoop=1;jettySize=auto;html=1;entryX=1;entryY=0.75;entryDx=0;entryDy=0;" edge="1" parent="1" source="uyzlXY_feBfka4zgD6tP-36" target="uyzlXY_feBfka4zgD6tP-7">
          <mxGeometry relative="1" as="geometry">
            <Array as="points">
              <mxPoint x="686" y="703" />
              <mxPoint x="569" y="703" />
              <mxPoint x="569" y="573" />
            </Array>
          </mxGeometry>
        </mxCell>
        <mxCell id="uyzlXY_feBfka4zgD6tP-36" value="sqlbuffet" style="shape=image;verticalLabelPosition=bottom;labelBackgroundColor=#ffffff;verticalAlign=top;aspect=fixed;imageAspect=0;image=data:image/png,iVBORw0KGgoAAAANSUhEUgAAADAAAAAwCAYAAABXAvmHAAAFeUlEQVRoQ+1aXWwUVRT+zuyCoJEYHwwkBjAxkc5sEJPK7BYx/gQfMDGGCEp80UCUaKCk7cy2VUSM0rKzK7SoRAgJieJDDUaNiTGoJaLsboVoYGeghAf1RaMPREia0O7OMbPtNtPZmd2Z/akh6Tz2nnvO9917vrv33FNCE76un1beRUJ+PUBrmDBOxKc02fi0CaFAjXaqZCLtALcDuMfh+zSAAS2qn2hkzIYRULLSZjAs4HIVgCdAPKDJhkWo7q9uAuoZ8XEWaAeApwKhYRyiQmgg8dD50UDzHMY1E+j6uSVCptAOxlYvAATqY7AVo9vD5ioTD4THQ4P9ay9crYVIYAJTAm0HkZUut7kFZeCjG+M3Og8+fOUfa1wZFhfTQtrPwHOuIIlHQcKAtjp3KCiJQAQqCLQUdxgCd2irjV/dgHSlRZkI+wGKeQANLHRfBKoJlIDLbFKn1pb7ys8KxkcimwomHyBgiYe9b6FXJOBDoGNM3JGUjQ/9AHfaKGlJBWGf51wfQncl4EegAN7WovquWoDb56g/3nc7wuF+Bl7xFDrzYDgfGnATehkBJS2+U0mgYBxDiHu01cZf9YK3zy8uWoH2AbQ+iNBnEFDS0hAIGz2AnSSi3oScO9tI4E5f8WzkSZPZSivJLQ4BRxJR/aXS2DQBNSNZx9xOl0kXGdyTjBpfNBN4mT4y0qtAUR9lRzUTbU3KuaPWnGkCSkb6BcAqm6NrAHq1qP7+bAK3x9o4hNCypVIfAYoDw2Etqr/sJMB2Iy2q+zpiZ4NcVzryCBEP22Kd0qL6o4EIqGlxGxM9C+AamTyYaDO+ayR425G9CMQf2K/fdRNQsuJGMA3ZARPzUUBIJWK5i/UQUdORFsDsZKItdj+hCeHO0rFZNwE1LcWZ0O8ESsAYA4MJWe8lwowUrEaKGaRmpb0E7GDgVqe9CaE1Fb1wzvp73QR2Dq+6Y97CCSsH7SK3x/wdxClNNg5WA26NK1lxO5g6ASxzs2fmPcmY8WZprG4CliM1s/JuE4UdhGLRMt8D6FkC9SaiuZNu42omso7BewG0epzxX5uEZFLWv7ePN4RAyWHHGfGB0GQB80KF1f5SmODt+9Yaf1g28dPiUnMeWbvjXvQQj7JJqWRMP+Lms6EEprc1Kz1GzJ2eP/2TZ1yiaM9QPcjmAST/DS9443DruQmvBWkKgVIwdSSygQvcDcKDfvK/ZENEQ3nkd70rX7pcbV5TCUzvyJnIFhL4dQDLKwFi8Dk26bVUm/5NNeANFbHfYGpGtM70PeCyO4xV//bUUjvMyg44CSoZqWFXkzkCftPHbje3A7bVmEuhuRQCUE+BNJdCN0sKOYv660zcm5SN9/4vAlZRv3yp2A9Q1wwMjIQW0+OT98WpT0mLh0C0rRwsj5os9KZiuc+CEKn3d6BY9ID6XK4kFoxnSp2eaQLd6RXLCxQ6DGCdB9BhZu5JxoysHyK1ElCzLU+zKfSBsMItjrNam/F0sjsnzh+7jt0VnxZBH88LF9S9rRf/rEQkKIF4Vrrf5GL98ISrX48eQu2Pu4SEJk/modunZKRPAGyeGjumRfUX3ey2Z+5dtIBuSVXo9FzlII+79iB+ntdB3O1WzE89xaxnYCzMBa0/duk3J4GujLSLgLc8d7LW5/Wyq3GVDiQDVwQSlIR84XM/+lBHxOfZpCSAxR72jWlwlN/xPXvARVMG/cCgjtJ7jnN+fCTSVijwAfIuP5vTYrID8dPkA9FxzgsdyTXn/7bm7jzbsmR+IXSAmTcFEaif3az5AddnF6efCUQML7FXFGhTCZSc+xC6Ow4fAp0VAqUg1TqZNjC+BTqrBKaJ3Kz/7OEUuiDkNzBhDUB5Yv42ETOO+1nRoDb/AVIgLV6wv3fZAAAAAElFTkSuQmCC;" vertex="1" parent="1">
          <mxGeometry x="710" y="722" width="48" height="48" as="geometry" />
        </mxCell>
        <mxCell id="uyzlXY_feBfka4zgD6tP-45" value="&lt;span style=&quot;font-family: monospace ; font-size: 14px ; letter-spacing: -0.3px&quot;&gt;调用/hive/table_dependency接口&lt;/span&gt;" style="text;html=1;align=center;verticalAlign=middle;resizable=0;points=[];autosize=1;strokeColor=none;" vertex="1" parent="1">
          <mxGeometry x="347" y="438" width="243" height="19" as="geometry" />
        </mxCell>
        <mxCell id="uyzlXY_feBfka4zgD6tP-46" value="&lt;span style=&quot;font-family: monospace ; font-size: 14px ; letter-spacing: -0.3px&quot;&gt;调用/sparksql/table_dependency接口&lt;/span&gt;" style="text;html=1;align=center;verticalAlign=middle;resizable=0;points=[];autosize=1;strokeColor=none;" vertex="1" parent="1">
          <mxGeometry x="347" y="457" width="275" height="19" as="geometry" />
        </mxCell>
        <mxCell id="uyzlXY_feBfka4zgD6tP-47" value="&lt;span style=&quot;font-family: monospace ; font-size: 14px ; letter-spacing: -0.3px&quot;&gt;调用/hive/column_dependency接口&lt;/span&gt;" style="text;html=1;align=center;verticalAlign=middle;resizable=0;points=[];autosize=1;strokeColor=none;" vertex="1" parent="1">
          <mxGeometry x="347" y="476" width="251" height="19" as="geometry" />
        </mxCell>
        <mxCell id="uyzlXY_feBfka4zgD6tP-48" value="&lt;span style=&quot;font-family: monospace ; font-size: 14px ; letter-spacing: -0.3px&quot;&gt;调用/sparksql/column_dependency接口&lt;/span&gt;" style="text;html=1;align=center;verticalAlign=middle;resizable=0;points=[];autosize=1;strokeColor=none;" vertex="1" parent="1">
          <mxGeometry x="347" y="492" width="284" height="19" as="geometry" />
        </mxCell>
        <mxCell id="uyzlXY_feBfka4zgD6tP-49" value="&lt;span style=&quot;font-family: monospace ; font-size: 14px ; letter-spacing: -0.3px&quot;&gt;调用/hive/semantic_analysis_result接口&lt;/span&gt;" style="text;html=1;align=center;verticalAlign=middle;resizable=0;points=[];autosize=1;strokeColor=none;" vertex="1" parent="1">
          <mxGeometry x="347" y="511" width="308" height="19" as="geometry" />
        </mxCell>
        <mxCell id="uyzlXY_feBfka4zgD6tP-50" value="读取&lt;span style=&quot;font-family: monospace ; font-size: 14px ; letter-spacing: -0.3px ; text-align: left&quot;&gt;table_dependencies_v2表&lt;/span&gt;" style="text;html=1;align=center;verticalAlign=middle;resizable=0;points=[];autosize=1;strokeColor=none;" vertex="1" parent="1">
          <mxGeometry x="333" y="641" width="218" height="19" as="geometry" />
        </mxCell>
        <mxCell id="uyzlXY_feBfka4zgD6tP-54" value="读取&lt;span style=&quot;font-family: monospace ; font-size: 14px ; letter-spacing: -0.3px ; text-align: left&quot;&gt;table_dependencies_v2表&lt;/span&gt;" style="text;html=1;align=center;verticalAlign=middle;resizable=0;points=[];autosize=1;strokeColor=none;" vertex="1" parent="1">
          <mxGeometry x="466" y="670" width="218" height="19" as="geometry" />
        </mxCell>
        <mxCell id="uyzlXY_feBfka4zgD6tP-56" value="读取&lt;span style=&quot;font-family: monospace ; font-size: 14px ; letter-spacing: -0.3px ; text-align: left&quot;&gt;table_lineage_info表&lt;/span&gt;" style="text;html=1;align=center;verticalAlign=middle;resizable=0;points=[];autosize=1;strokeColor=none;" vertex="1" parent="1">
          <mxGeometry x="475" y="727" width="194" height="19" as="geometry" />
        </mxCell>
        <mxCell id="uyzlXY_feBfka4zgD6tP-57" value="读取&lt;span style=&quot;font-family: monospace ; font-size: 14px ; letter-spacing: -0.3px ; text-align: left&quot;&gt;table_dependencies_v3表&lt;/span&gt;" style="text;html=1;align=center;verticalAlign=middle;resizable=0;points=[];autosize=1;strokeColor=none;" vertex="1" parent="1">
          <mxGeometry x="466" y="685" width="218" height="19" as="geometry" />
        </mxCell>
        <mxCell id="uyzlXY_feBfka4zgD6tP-58" value="调用&lt;span style=&quot;font-family: monospace ; font-size: 14px ; letter-spacing: -0.3px ; text-align: left&quot;&gt;/apiv1/path4all接口&lt;/span&gt;" style="text;html=1;align=center;verticalAlign=middle;resizable=0;points=[];autosize=1;strokeColor=none;" vertex="1" parent="1">
          <mxGeometry x="617" y="634" width="183" height="19" as="geometry" />
        </mxCell>
        <mxCell id="uyzlXY_feBfka4zgD6tP-59" value="读取&lt;span style=&quot;font-family: monospace ; font-size: 14px ; letter-spacing: -0.3px ; text-align: left&quot;&gt;table_dependencies_v2表&lt;/span&gt;" style="text;html=1;align=center;verticalAlign=middle;resizable=0;points=[];autosize=1;strokeColor=none;" vertex="1" parent="1">
          <mxGeometry x="484" y="540" width="218" height="19" as="geometry" />
        </mxCell>
        <mxCell id="uyzlXY_feBfka4zgD6tP-60" value="读取&lt;span style=&quot;font-family: monospace ; font-size: 14px ; letter-spacing: -0.3px ; text-align: left&quot;&gt;table_code_file_path&lt;/span&gt;&lt;span style=&quot;font-family: monospace ; font-size: 14px ; letter-spacing: -0.3px ; text-align: left&quot;&gt;表&lt;/span&gt;" style="text;html=1;align=center;verticalAlign=middle;resizable=0;points=[];autosize=1;strokeColor=none;" vertex="1" parent="1">
          <mxGeometry x="490" y="559" width="210" height="19" as="geometry" />
        </mxCell>
        <mxCell id="uyzlXY_feBfka4zgD6tP-63" value="读取&lt;span style=&quot;font-family: monospace ; font-size: 14px ; letter-spacing: -0.3px ; text-align: left&quot;&gt;table_lineage_info表&lt;/span&gt;" style="text;html=1;align=center;verticalAlign=middle;resizable=0;points=[];autosize=1;strokeColor=none;" vertex="1" parent="1">
          <mxGeometry x="503" y="790" width="194" height="19" as="geometry" />
        </mxCell>
        <mxCell id="uyzlXY_feBfka4zgD6tP-65" value="&lt;span style=&quot;font-family: monospace ; font-size: 14px ; letter-spacing: -0.3px ; text-align: left&quot;&gt;调用/sparksql/sql接口&lt;/span&gt;" style="text;html=1;align=center;verticalAlign=middle;resizable=0;points=[];autosize=1;strokeColor=none;" vertex="1" parent="1">
          <mxGeometry x="282" y="258" width="170" height="19" as="geometry" />
        </mxCell>
      </root>
    </mxGraphModel>
  </diagram>
</mxfile>
